<svg width="238" height="183" viewBox="0 0 238 183" fill="none" xmlns="http://www.w3.org/2000/svg">
<path d="M86.959 113.822C86.1254 131.851 68.3907 130.424 58.2515 122.975C43.8403 112.388 40.709 85.9162 49.5652 69.3945C58.331 53.044 72.4981 53.7143 86.959 53.7143C113.95 53.7143 149.565 55.6025 157.624 15.8205C170.571 24.4446 185.441 19.67 199.581 21.2694C214.74 22.9838 224.902 29.2754 237.121 39.3408C233.868 -4.48271 190.937 0.14033 164.249 0.14033C148.038 0.14033 131.919 1.44701 115.667 1.44701C75.9165 1.44701 29.4744 -5.54374 8.29926 44.5676C4.81019 52.8258 2.55996 61.5871 1.32002 70.7012C-3.48187 105.996 4.40718 147.995 31.7522 168.091C47.5436 179.697 65.5101 181.769 83.6466 181.769H117.875C122.268 181.769 128.296 182.915 130.927 177.656C133.64 172.234 132.229 163.004 132.229 156.942V107.288C132.229 101.103 133.875 90.6124 130.305 85.4903C127.444 81.386 121.856 82.4614 117.875 82.4614C106.64 82.4601 86.3705 77.7926 76.1694 83.4309C70.8651 86.3631 70.7039 107.019 74.5286 111.546C77.4248 114.972 83.2436 113.822 86.959 113.822Z" fill="#0775C6"/>
<path d="M215.791 27.4538C217.173 32.544 219.692 37.2178 220.107 42.572C222.107 68.3531 202.208 72.8084 182.644 72.8084C182.644 59.1287 180.174 47.9564 164.966 47.2237V134.444C172.499 134.258 179.475 131.016 181.923 122.815C183.204 118.521 181.292 111.781 186.122 109.561C189.505 108.007 194.586 108.785 198.112 109.37C221.956 113.322 222.785 136.508 214.686 155.377C221.848 152.81 229.42 149.446 233.797 142.58C247.896 120.462 223.639 94.2529 203.637 91.4153V90.2524C235.584 87.5021 252.485 38.0214 215.791 27.4538Z" fill="#0775C6"/>
<path d="M235.679 147.236C225.589 156.419 213.659 161.283 200.322 162.25C182.2 163.564 155.258 156.633 148.393 180.961C169.941 180.961 201.194 186.955 220.21 174.32C227.468 169.498 238.493 157.255 235.679 147.236Z" fill="#0775C6"/>
</svg>
